Coordinates
version=1
nRows=17
nColumns=33
inDegrees=yes

Units are S.I. units (second, meters, Newtons, ...)
Angles are in degrees.

endheader
time	ground_thorax_rot_x	ground_thorax_rot_y	ground_thorax_rot_z	ground_thorax_tx	ground_thorax_ty	ground_thorax_tz	clav_prot_r	clav_elev_r	scapula_abduction_r	scapula_elevation_r	scapula_upward_rot_r	scapula_winging_r	shoulder_elv_r	plane_of_elev_r	axial_rot_r	elbow_flexion_r	pro_sup_r	wrist_flex_r	wrist_dev_r	clav_prot_l	clav_elev_l	scapula_abduction_l	scapula_elevation_l	scapula_upward_rot_l	scapula_winging_l	shoulder_elv_l	plane_of_elev_l	axial_rot_l	elbow_flexion_l	pro_sup_l	wrist_flex_l	wrist_dev_l	
4.5800	36.143560	20.572529	23.703967	-218.373998	832.223607	6.986678	12.489724	38.922048	38.210336	45.000000	-34.227639	-1891.056648	-2091.368884	33.177443	53.997314	1453.618506	26.409703	19.312493	4.695564	8.198833	-45.000000	-37.370918	45.000000	-43.880189	1539.911937	-3690.956319	138.647204	149.066763	-709.001715	11.303306	4.858084	-20.524346	
4.5900	36.156678	20.432778	23.525757	-220.404487	832.707321	7.029330	12.471315	38.861093	38.165307	45.000000	-34.448445	-1891.090188	-2091.286953	33.206768	54.029268	1453.702917	27.615747	19.204983	4.426604	8.235591	-45.000000	-37.323475	45.000000	-44.081428	1540.029230	-3690.886006	138.620778	149.107075	-708.995743	11.741171	4.695929	-20.502873	
4.6000	36.164861	20.301762	23.361899	-222.378040	833.149626	7.084728	12.451508	38.801969	38.122063	45.000000	-34.669176	-1891.123916	-2091.212120	33.229747	54.043810	1453.796515	28.901028	19.085363	4.162907	8.269063	-45.000000	-37.275382	45.000000	-44.284786	1540.145026	-3690.820903	138.598165	149.141287	-708.985168	12.225822	4.527817	-20.479318	
4.6100	36.169898	20.181700	23.213799	-224.293778	833.549566	7.152593	12.432198	38.740367	38.077817	45.000000	-34.902397	-1891.156815	-2091.139305	33.258049	54.050459	1453.890010	30.257361	18.949998	3.906105	8.305044	-45.000000	-37.221376	45.000000	-44.504529	1540.261949	-3690.759593	138.570972	149.178519	-708.974912	12.757784	4.349097	-20.450181	
4.6200	36.175945	20.058832	23.062060	-226.151565	833.906060	7.232225	12.409018	38.698452	38.027863	45.000000	-35.103145	-1891.181633	-2091.071040	33.269753	54.049335	1453.998678	31.645469	18.811170	3.669388	8.328470	-45.000000	-37.168681	45.000000	-44.661258	1540.371312	-3690.708403	138.568768	149.172050	-708.953999	13.335977	4.180536	-20.423464	
4.6300	36.181439	19.942286	22.917102	-227.952214	834.218173	7.322439	12.383093	38.661229	37.974866	45.000000	-35.298060	-1891.203683	-2091.007423	33.279628	54.040706	1454.104322	33.056988	18.659965	3.442444	8.349867	-45.000000	-37.113444	45.000000	-44.793457	1540.479967	-3690.667074	138.572321	149.151670	-708.934876	13.953727	4.011106	-20.392240	
4.6400	36.187772	19.823191	22.767201	-229.696635	834.485323	7.421575	12.352687	38.644859	37.916015	45.000000	-35.456070	-1891.217489	-2090.950986	33.270265	54.035046	1454.220225	34.467454	18.506828	3.235817	8.358794	-45.000000	-37.061153	45.000000	-44.856219	1540.580120	-3690.636138	138.602795	149.077271	-708.907770	14.608240	3.854041	-20.361956	
4.6500	36.193757	19.705866	22.617544	-231.385633	834.707710	7.527567	12.320892	38.626668	37.852218	45.000000	-35.614150	-1891.227543	-2090.900574	33.266039	54.030004	1454.330327	35.885135	18.341624	3.037449	8.366879	-45.000000	-37.010608	45.000000	-44.898802	1540.678961	-3690.613301	138.633725	148.995932	-708.885491	15.292157	3.695275	-20.324419	
4.6600	36.200351	19.587370	22.465198	-233.019195	834.886515	7.638141	12.288569	38.605855	37.783262	45.000000	-35.767991	-1891.234215	-2090.857720	33.265069	54.032104	1454.441285	37.315383	18.167234	2.849164	8.371286	-45.000000	-36.963989	45.000000	-44.919341	1540.775945	-3690.599807	138.667227	148.902641	-708.860233	16.003612	3.533471	-20.280682	
4.6700	36.205478	19.473785	22.318641	-234.596543	835.024029	7.751048	12.255901	38.572006	37.715650	45.000000	-35.928349	-1891.242807	-2090.824671	33.268154	54.029044	1454.547807	38.772216	17.978772	2.663953	8.375453	-45.000000	-36.924650	45.000000	-44.939766	1540.874375	-3690.597046	138.695956	148.823581	-708.839601	16.739240	3.363616	-20.227625	
4.6800	36.209398	19.361553	22.175577	-236.116226	835.123474	7.864295	12.225972	38.526954	37.646581	45.000000	-36.100737	-1891.248120	-2090.798037	33.279921	54.039774	1454.653624	40.268293	17.780154	2.487918	8.381180	-45.000000	-36.889871	45.000000	-44.963595	1540.972138	-3690.601054	138.719676	148.750179	-708.818069	17.500240	3.185834	-20.166303	
4.6900	36.210268	19.255450	22.042188	-237.576873	835.188689	7.976300	12.198564	38.473022	37.580012	45.000000	-36.278784	-1891.251447	-2090.777522	33.288777	54.044348	1454.761796	41.799841	17.573856	2.322625	8.385761	-45.000000	-36.862169	45.000000	-44.983452	1541.067927	-3690.612760	138.744863	148.681036	-708.797686	18.283316	3.006708	-20.098747	
4.7000	36.210183	19.150709	21.913995	-238.977740	835.223658	8.085906	12.173585	38.413636	37.511460	45.000000	-36.460392	-1891.250376	-2090.761775	33.300627	54.062025	1454.873000	43.363916	17.362509	2.171550	8.391043	-45.000000	-36.836600	45.000000	-45.000000	1541.159933	-3690.630337	138.768941	148.612471	-708.774166	19.085512	2.827606	-20.026117	
4.7100	36.207389	19.051602	21.797514	-240.319274	835.232058	8.192285	12.149461	38.357392	37.444974	45.000000	-36.632685	-1891.246389	-2090.752066	33.299542	54.079867	1454.992133	44.941426	17.150919	2.037882	8.393154	-45.000000	-36.813605	45.000000	-45.000000	1541.246442	-3690.653448	138.802841	148.529648	-708.748897	19.901777	2.657067	-19.951693	
4.7200	36.204833	18.950879	21.683448	-241.603224	835.216953	8.294776	12.127908	38.300402	37.372092	45.000000	-36.805665	-1891.236329	-2090.745708	33.304710	54.121275	1455.113189	46.528396	16.938699	1.922220	8.397584	-45.000000	-36.788477	45.000000	-45.000000	1541.327436	-3690.677252	138.833661	148.442712	-708.720764	20.728594	2.491182	-19.874151	
4.7300	36.199620	18.855165	21.581727	-242.832616	835.180605	8.392769	12.110003	38.243622	37.298318	45.000000	-36.980193	-1891.223706	-2090.744597	33.306944	54.171082	1455.238274	48.115342	16.727323	1.823736	8.401709	-45.000000	-36.763367	45.000000	-45.000000	1541.404236	-3690.701482	138.866346	148.348697	-708.692554	21.564300	2.331810	-19.794439	
4.7400	36.197450	18.755169	21.479403	-244.010997	835.124500	8.485597	12.089961	38.190271	37.220145	45.000000	-37.134829	-1891.206745	-2090.752038	33.304611	54.246620	1455.363424	49.693118	16.517020	1.741417	8.402889	-45.000000	-36.740883	45.000000	-45.000000	1541.473407	-3690.730076	138.898222	148.248526	-708.662238	22.404109	2.180209	-19.714034	
